<svg xmlns="http://www.w3.org/2000/svg" viewBox="0 0 844.7 319.8" height="133.2" width="352" shape-rendering="crispEdges"><path d="M437.3 249H336v-39.8h101.4z" fill="#63f"/><path d="M437.3 209.2H336v-40h101.4z" fill="#09f"/><path d="M437.4 169.1H336v-39.8h101.3z" fill="#3f0"/><path d="M336 89.4h101.5v39.9H335.9z" fill="#ff0"/><path d="M437.3 49.4H336v40h101.4z" fill="#f90"/><path d="M437.3 49.4H336v-40h101.4z" fill="red"/><path d="M336 265.3H224v-39.9h112z" fill="#63f"/><path d="M336 225.4H224v-40h112z" fill="#09f"/><path d="M336 185.3H224v-39.9h112z" fill="#3f0"/><path d="M224 105.4h112v40H224z" fill="#ff0"/><path d="M336 65.5H224v39.9h112z" fill="#f90"/><path d="M336 65.5H224V25.4h112z" fill="red"/><path d="M224 281.3H112v-40h112z" fill="#63f"/><path d="M224 241.4H112v-40.1h112z" fill="#09f"/><path d="M224 201.3H112v-40h112z" fill="#3f0"/><path d="M112 121.3h112v40H112z" fill="#ff0"/><path d="M224 81.2H112v40.1h112z" fill="#f90"/><path d="M224 81.2H112V41.4h112z" fill="red"/><path d="M112 297.3H0v-40h112z" fill="#63f"/><path d="M112 257.4H0v-40h112z" fill="#09f"/><path d="M112 217.4H0v-40h112z" fill="#3f0"/><path d="M0 137.2h112v40.2H0z" fill="#ff0"/><path d="M112 97.2H0v40.1h112z" fill="#f90"/><path d="M112 97.2H0V57.4h112z" fill="red"/><path d="M746.7 272l-154.3 7-133.1-5.9-16.6-17-8.6-109.3 11-114.8 16-16 141.6-8 130.1 8 16 16 6 128z" fill="#ffcc9a"/><path d="M493 255.6v-15.8l-16 .3-.2-16.4-16 .2.2-160 16.2.2L477 48l16-.1V32.1l207.8-.1v16h16v16h16v191.8z" fill="#f9f"/><path d="M524.8 159.8h-16v-16h16z" fill="#fe339a"/><path d="M589 175.9h-16v-16h16z" fill="#fe3399"/><path d="M573 128l-16-.1v-16h16zM589 64h-16V48h16zM509 80h-16V64h16z" fill="#f39"/><path d="M557 223.8h-16v-16h16z" fill="#fe339a"/><path d="M493 191.9h-16v-16h16z" fill="#ff339a"/><path d="M700.9 96h-16V80h16zM636.9 64h-16V48h16zM509 239.8h-16v-16h16z" fill="#f39"/><path d="M605 239.8V160l15.9-64h32l16 16 16 16 29.7 8.2 34.2-8.1 13.9-16 18-16h32l16 63.9v80l-16 15.9-16 16-78.5 6.9L637 272l-16-16.2zM333.1 143.8l-5.5 18.4 13.6 3.4 8 10.3 61 18.5 24.4 2 .8-25.7-24-12.7-32.2-19.4zM446.2 270.6l-49.1 1.2-4.8 35 36.8-3 16-16zM477 303.8l-1-17.4 34 .7v17.5zM635.7 286.9l34.2-.3-.4 17.8-32.6-.6zM711.9 286l39 .1-.6 20.2-33.5-2.6z" fill="#999"/><path d="M668.9 191.9h-16v-16h16zM780.8 191.9h-16v-16h16z" fill="#fff"/><path d="M605 239.8h-16v-80h16zM652.9 96h-32V80h32z"/><path d="M620.9 159.9h-16v-64h16zM652.9 96h16v16h-16zM668.9 112h16v16h-16z"/><path d="M684.8 127.9h64v16h-64zM780.8 80h32v16h-32zM812.7 96h16v63.9h-16zM828.7 159.9h16v80h-16zM812.7 239.8h16v16h-16zM796.8 255.8h16v16h-16zM620.9 239.8h-16v16h16zM349.1 175.9h-32v-32h16v16h16zM461 32h-16V16h16zM381 319.8v-48h16v32h32v16zM445 303.8h-16v-16h16zM732.8 16H461V0h271.8zM748.8 16h-16v16h16zM684.8 207.8h-32v-16h16v-16h16zM796.8 175.9h-16v16h-16v16h32zM732.8 207.8h16v-16h-16z"/><path d="M429 32h16v223.8h16v16h160l-.1-16h16v16h159.9v16h-32v32h-48v-16h32v-16h-32v16h-16v-16h-16v32h-48v-16h32v-16h-32v16H621v-16h-96v32H477v-16h32v-16h-32v16h-16v-16h-16v-16h-48v-16h16v-16h16v-32h-32v-16h-47.9v-16h64v16h16v-16h-16v-16h-32v-16h-48V128h64v16h32z"/><path d="M668.9 223.8v32h111.9v-32h-16v16h-32v-16h-16v16h-32v-16zM748.8 32h16v64h16v16h-16v15.9h-16z"/><path d="M652.9 239.8h-32v-32h32zM828.7 207.8h-32v32h32z" fill="#f99"/></svg>